<?xml version="1.0" encoding="UTF-8" standalone="no"?>
<!DOCTYPE svg PUBLIC "-//W3C//DTD SVG 1.1//EN"
 "http://www.w3.org/Graphics/SVG/1.1/DTD/svg11.dtd">
<!-- Generated by graphviz version 14.1.1 (0)
 -->
<!-- Title: G Pages: 1 -->
<svg width="1442pt" height="727pt"
 viewBox="0.00 0.00 1442.00 727.00" xmlns="http://www.w3.org/2000/svg" xmlns:xlink="http://www.w3.org/1999/xlink">
<g id="graph0" class="graph" transform="scale(1 1) rotate(0) translate(21.6 705.82)">
<title>G</title>
<polygon fill="#111111" stroke="none" points="-21.6,21.6 -21.6,-705.82 1420.1,-705.82 1420.1,21.6 -21.6,21.6"/>
<!-- src/app_comm.ts -->
<g id="node1" class="node">
<title>src/app_comm.ts</title>
<path fill="none" stroke="#c6c5fe" d="M529.83,-600.22C529.83,-600.22 425.42,-600.22 425.42,-600.22 421.46,-600.22 417.5,-596.27 417.5,-592.31 417.5,-592.31 417.5,-584.39 417.5,-584.39 417.5,-580.43 421.46,-576.47 425.42,-576.47 425.42,-576.47 529.83,-576.47 529.83,-576.47 533.79,-576.47 537.75,-580.43 537.75,-584.39 537.75,-584.39 537.75,-592.31 537.75,-592.31 537.75,-596.27 533.79,-600.22 529.83,-600.22"/>
<text xml:space="preserve" text-anchor="middle" x="477.62" y="-582.92" font-family="Arial" font-size="14.00" fill="#c6c5fe">src/app_comm.ts</text>
</g>
<!-- src/app_config.ts -->
<g id="node2" class="node">
<title>src/app_config.ts</title>
<path fill="none" stroke="#cfffac" d="M1390.58,-311.22C1390.58,-311.22 1288.42,-311.22 1288.42,-311.22 1284.46,-311.22 1280.5,-307.27 1280.5,-303.31 1280.5,-303.31 1280.5,-295.39 1280.5,-295.39 1280.5,-291.43 1284.46,-287.47 1288.42,-287.47 1288.42,-287.47 1390.58,-287.47 1390.58,-287.47 1394.54,-287.47 1398.5,-291.43 1398.5,-295.39 1398.5,-295.39 1398.5,-303.31 1398.5,-303.31 1398.5,-307.27 1394.54,-311.22 1390.58,-311.22"/>
<text xml:space="preserve" text-anchor="middle" x="1339.5" y="-293.92" font-family="Arial" font-size="14.00" fill="#cfffac">src/app_config.ts</text>
</g>
<!-- src/app_comm.ts&#45;&gt;src/app_config.ts -->
<g id="edge1" class="edge">
<title>src/app_comm.ts&#45;&gt;src/app_config.ts</title>
<path fill="none" stroke="#757575" d="M538.24,-588.62C607.74,-588.92 726.07,-589.35 827.75,-589.35 827.75,-589.35 827.75,-589.35 998,-589.35 1163.13,-589.35 1288.88,-389.23 1326.73,-321.47"/>
<polygon fill="#757575" stroke="#757575" points="1329.76,-323.22 1331.49,-312.77 1323.62,-319.86 1329.76,-323.22"/>
</g>
<!-- src/app_utils.ts -->
<g id="node3" class="node">
<title>src/app_utils.ts</title>
<path fill="none" stroke="#c6c5fe" d="M1042.08,-447.22C1042.08,-447.22 951.92,-447.22 951.92,-447.22 947.96,-447.22 944,-443.27 944,-439.31 944,-439.31 944,-431.39 944,-431.39 944,-427.43 947.96,-423.47 951.92,-423.47 951.92,-423.47 1042.08,-423.47 1042.08,-423.47 1046.04,-423.47 1050,-427.43 1050,-431.39 1050,-431.39 1050,-439.31 1050,-439.31 1050,-443.27 1046.04,-447.22 1042.08,-447.22"/>
<text xml:space="preserve" text-anchor="middle" x="997" y="-429.92" font-family="Arial" font-size="14.00" fill="#c6c5fe">src/app_utils.ts</text>
</g>
<!-- src/app_comm.ts&#45;&gt;src/app_utils.ts -->
<g id="edge2" class="edge">
<title>src/app_comm.ts&#45;&gt;src/app_utils.ts</title>
<path fill="none" stroke="#757575" d="M508.67,-576.05C558.22,-556.09 660.43,-516.28 749.5,-490.35 810.95,-472.46 882.46,-457.09 932.58,-447.18"/>
<polygon fill="#757575" stroke="#757575" points="932.95,-450.68 942.09,-445.32 931.6,-443.81 932.95,-450.68"/>
</g>
<!-- src/app_utils.ts&#45;&gt;src/app_config.ts -->
<g id="edge9" class="edge">
<title>src/app_utils.ts&#45;&gt;src/app_config.ts</title>
<path fill="none" stroke="#757575" d="M1050.29,-440.65C1102.51,-443.55 1183.57,-441.41 1244.5,-409.35 1282.4,-389.4 1311.52,-347.23 1326.73,-321.29"/>
<polygon fill="#757575" stroke="#757575" points="1329.6,-323.33 1331.47,-312.9 1323.5,-319.89 1329.6,-323.33"/>
</g>
<!-- src/logger.ts -->
<g id="node6" class="node">
<title>src/logger.ts</title>
<path fill="none" stroke="#c6c5fe" d="M1201.71,-311.22C1201.71,-311.22 1128.79,-311.22 1128.79,-311.22 1124.83,-311.22 1120.88,-307.27 1120.88,-303.31 1120.88,-303.31 1120.88,-295.39 1120.88,-295.39 1120.88,-291.43 1124.83,-287.47 1128.79,-287.47 1128.79,-287.47 1201.71,-287.47 1201.71,-287.47 1205.67,-287.47 1209.62,-291.43 1209.62,-295.39 1209.62,-295.39 1209.62,-303.31 1209.62,-303.31 1209.62,-307.27 1205.67,-311.22 1201.71,-311.22"/>
<text xml:space="preserve" text-anchor="middle" x="1165.25" y="-293.92" font-family="Arial" font-size="14.00" fill="#c6c5fe">src/logger.ts</text>
</g>
<!-- src/app_utils.ts&#45;&gt;src/logger.ts -->
<g id="edge10" class="edge">
<title>src/app_utils.ts&#45;&gt;src/logger.ts</title>
<path fill="none" stroke="#757575" d="M1013.05,-423.04C1042.1,-399.27 1106.12,-346.9 1140.81,-318.53"/>
<polygon fill="#757575" stroke="#757575" points="1142.66,-321.53 1148.19,-312.49 1138.23,-316.11 1142.66,-321.53"/>
</g>
<!-- src/app_state.ts -->
<g id="node4" class="node">
<title>src/app_state.ts</title>
<path fill="none" stroke="#c6c5fe" d="M525.33,-255.22C525.33,-255.22 429.92,-255.22 429.92,-255.22 425.96,-255.22 422,-251.27 422,-247.31 422,-247.31 422,-239.39 422,-239.39 422,-235.43 425.96,-231.47 429.92,-231.47 429.92,-231.47 525.33,-231.47 525.33,-231.47 529.29,-231.47 533.25,-235.43 533.25,-239.39 533.25,-239.39 533.25,-247.31 533.25,-247.31 533.25,-251.27 529.29,-255.22 525.33,-255.22"/>
<text xml:space="preserve" text-anchor="middle" x="477.62" y="-237.92" font-family="Arial" font-size="14.00" fill="#c6c5fe">src/app_state.ts</text>
</g>
<!-- src/app_state.ts&#45;&gt;src/app_config.ts -->
<g id="edge3" class="edge">
<title>src/app_state.ts&#45;&gt;src/app_config.ts</title>
<path fill="none" stroke="#757575" d="M533.69,-243.65C581.3,-244.05 651.96,-245.03 713.5,-247.35 949.73,-256.25 1010.38,-245.58 1244.5,-278.35 1255.92,-279.95 1268.01,-282.21 1279.58,-284.66"/>
<polygon fill="#757575" stroke="#757575" points="1278.47,-288 1288.99,-286.73 1279.98,-281.16 1278.47,-288"/>
</g>
<!-- src/app_state.ts&#45;&gt;src/app_utils.ts -->
<g id="edge4" class="edge">
<title>src/app_state.ts&#45;&gt;src/app_utils.ts</title>
<path fill="none" stroke="#757575" d="M511.78,-255.65C601.74,-289.04 850.51,-381.36 952.01,-419.03"/>
<polygon fill="#757575" stroke="#757575" points="950.78,-422.3 961.37,-422.5 953.21,-415.74 950.78,-422.3"/>
</g>
<!-- src/environment.ts -->
<g id="node5" class="node">
<title>src/environment.ts</title>
<path fill="none" stroke="#c6c5fe" d="M699.21,-177.22C699.21,-177.22 588.04,-177.22 588.04,-177.22 584.08,-177.22 580.12,-173.27 580.12,-169.31 580.12,-169.31 580.12,-161.39 580.12,-161.39 580.12,-157.43 584.08,-153.47 588.04,-153.47 588.04,-153.47 699.21,-153.47 699.21,-153.47 703.17,-153.47 707.12,-157.43 707.12,-161.39 707.12,-161.39 707.12,-169.31 707.12,-169.31 707.12,-173.27 703.17,-177.22 699.21,-177.22"/>
<text xml:space="preserve" text-anchor="middle" x="643.62" y="-159.92" font-family="Arial" font-size="14.00" fill="#c6c5fe">src/environment.ts</text>
</g>
<!-- src/app_state.ts&#45;&gt;src/environment.ts -->
<g id="edge5" class="edge">
<title>src/app_state.ts&#45;&gt;src/environment.ts</title>
<path fill="none" stroke="#757575" d="M498.98,-231.14C517.96,-220.02 547.24,-203.53 573.75,-191.35 581.01,-188.01 588.84,-184.76 596.51,-181.74"/>
<polygon fill="#757575" stroke="#757575" points="597.7,-185.03 605.78,-178.19 595.19,-178.49 597.7,-185.03"/>
</g>
<!-- src/app_state.ts&#45;&gt;src/logger.ts -->
<g id="edge6" class="edge">
<title>src/app_state.ts&#45;&gt;src/logger.ts</title>
<path fill="none" stroke="#757575" d="M533.57,-247.84C662.05,-258.33 980.87,-284.37 1109.32,-294.86"/>
<polygon fill="#757575" stroke="#757575" points="1108.66,-298.32 1118.91,-295.65 1109.23,-291.34 1108.66,-298.32"/>
</g>
<!-- src/plane_functions.ts -->
<g id="node7" class="node">
<title>src/plane_functions.ts</title>
<path fill="none" stroke="#c6c5fe" d="M894.08,-63.22C894.08,-63.22 763.42,-63.22 763.42,-63.22 759.46,-63.22 755.5,-59.27 755.5,-55.31 755.5,-55.31 755.5,-47.39 755.5,-47.39 755.5,-43.43 759.46,-39.47 763.42,-39.47 763.42,-39.47 894.08,-39.47 894.08,-39.47 898.04,-39.47 902,-43.43 902,-47.39 902,-47.39 902,-55.31 902,-55.31 902,-59.27 898.04,-63.22 894.08,-63.22"/>
<text xml:space="preserve" text-anchor="middle" x="828.75" y="-45.92" font-family="Arial" font-size="14.00" fill="#c6c5fe">src/plane_functions.ts</text>
</g>
<!-- src/app_state.ts&#45;&gt;src/plane_functions.ts -->
<g id="edge7" class="edge">
<title>src/app_state.ts&#45;&gt;src/plane_functions.ts</title>
<path fill="none" stroke="#757575" d="M487.62,-231.15C503.19,-210.78 537.01,-169.59 573.75,-144.35 630.3,-105.5 705.04,-80.7 758.78,-66.57"/>
<polygon fill="#757575" stroke="#757575" points="759.63,-69.97 768.45,-64.09 757.9,-63.18 759.63,-69.97"/>
</g>
<!-- src/plugin_register.ts -->
<g id="node8" class="node">
<title>src/plugin_register.ts</title>
<path fill="none" stroke="#c6c5fe" d="M705.58,-409.22C705.58,-409.22 581.67,-409.22 581.67,-409.22 577.71,-409.22 573.75,-405.27 573.75,-401.31 573.75,-401.31 573.75,-393.39 573.75,-393.39 573.75,-389.43 577.71,-385.47 581.67,-385.47 581.67,-385.47 705.58,-385.47 705.58,-385.47 709.54,-385.47 713.5,-389.43 713.5,-393.39 713.5,-393.39 713.5,-401.31 713.5,-401.31 713.5,-405.27 709.54,-409.22 705.58,-409.22"/>
<text xml:space="preserve" text-anchor="middle" x="643.62" y="-391.92" font-family="Arial" font-size="14.00" fill="#c6c5fe">src/plugin_register.ts</text>
</g>
<!-- src/app_state.ts&#45;&gt;src/plugin_register.ts -->
<g id="edge8" class="edge">
<title>src/app_state.ts&#45;&gt;src/plugin_register.ts</title>
<path fill="none" stroke="#757575" d="M491.51,-255.61C509.77,-272.97 544.23,-305.67 573.75,-333.35 589.57,-348.19 607.53,-364.87 621.14,-377.48"/>
<polygon fill="#757575" stroke="#757575" points="618.56,-379.86 628.28,-384.09 623.32,-374.72 618.56,-379.86"/>
</g>
<!-- src/environment.ts&#45;&gt;src/app_config.ts -->
<g id="edge11" class="edge">
<title>src/environment.ts&#45;&gt;src/app_config.ts</title>
<path fill="none" stroke="#757575" d="M707.57,-156.38C842.28,-138.41 1153.63,-103.78 1244.5,-153.35 1292.79,-179.69 1320,-242.67 1331.64,-276.66"/>
<polygon fill="#757575" stroke="#757575" points="1328.24,-277.5 1334.66,-285.93 1334.89,-275.34 1328.24,-277.5"/>
</g>
<!-- src/environment.ts&#45;&gt;src/app_utils.ts -->
<g id="edge12" class="edge">
<title>src/environment.ts&#45;&gt;src/app_utils.ts</title>
<path fill="none" stroke="#757575" d="M679.91,-177.72C733.79,-197.92 837.71,-242.18 908,-305.35 943.07,-336.87 970.94,-385.17 985.31,-413.17"/>
<polygon fill="#757575" stroke="#757575" points="982.03,-414.43 989.63,-421.8 988.29,-411.29 982.03,-414.43"/>
</g>
<!-- src/environment.ts&#45;&gt;src/logger.ts -->
<g id="edge14" class="edge">
<title>src/environment.ts&#45;&gt;src/logger.ts</title>
<path fill="none" stroke="#757575" d="M707.3,-167.66C788.63,-172.36 933.84,-186.53 1050,-229.35 1083.27,-241.61 1117.43,-264.09 1139.62,-280.27"/>
<polygon fill="#757575" stroke="#757575" points="1137.32,-282.92 1147.43,-286.08 1141.5,-277.31 1137.32,-282.92"/>
</g>
<!-- src/environment.ts&#45;&gt;src/plane_functions.ts -->
<g id="edge15" class="edge">
<title>src/environment.ts&#45;&gt;src/plane_functions.ts</title>
<path fill="none" stroke="#757575" d="M676.87,-153.06C689.19,-147.36 702.83,-139.75 713.5,-130.35 734.87,-111.53 726.79,-94.52 749.5,-77.35 754.09,-73.88 759.17,-70.85 764.48,-68.22"/>
<polygon fill="#757575" stroke="#757575" points="765.75,-71.49 773.49,-64.25 762.93,-65.08 765.75,-71.49"/>
</g>
<!-- src/bind.ts -->
<g id="node10" class="node">
<title>src/bind.ts</title>
<path fill="none" stroke="#cfffac" d="M1027.83,-63.22C1027.83,-63.22 966.17,-63.22 966.17,-63.22 962.21,-63.22 958.25,-59.27 958.25,-55.31 958.25,-55.31 958.25,-47.39 958.25,-47.39 958.25,-43.43 962.21,-39.47 966.17,-39.47 966.17,-39.47 1027.83,-39.47 1027.83,-39.47 1031.79,-39.47 1035.75,-43.43 1035.75,-47.39 1035.75,-47.39 1035.75,-55.31 1035.75,-55.31 1035.75,-59.27 1031.79,-63.22 1027.83,-63.22"/>
<text xml:space="preserve" text-anchor="middle" x="997" y="-45.92" font-family="Arial" font-size="14.00" fill="#cfffac">src/bind.ts</text>
</g>
<!-- src/environment.ts&#45;&gt;src/bind.ts -->
<g id="edge13" class="edge">
<title>src/environment.ts&#45;&gt;src/bind.ts</title>
<path fill="none" stroke="#757575" d="M669.03,-153.05C694.82,-140.17 733.86,-121.05 749.5,-115.35 768.03,-108.6 880.48,-80.17 946.92,-63.56"/>
<polygon fill="#757575" stroke="#757575" points="947.64,-66.98 956.5,-61.17 945.94,-60.19 947.64,-66.98"/>
</g>
<!-- src/logger.ts&#45;&gt;src/app_config.ts -->
<g id="edge16" class="edge">
<title>src/logger.ts&#45;&gt;src/app_config.ts</title>
<path fill="none" stroke="#757575" d="M1209.72,-299.35C1227.63,-299.35 1248.83,-299.35 1268.81,-299.35"/>
<polygon fill="#757575" stroke="#757575" points="1268.57,-302.85 1278.57,-299.35 1268.57,-295.85 1268.57,-302.85"/>
</g>
<!-- src/plane_functions.ts&#45;&gt;src/app_config.ts -->
<g id="edge28" class="edge">
<title>src/plane_functions.ts&#45;&gt;src/app_config.ts</title>
<path fill="none" stroke="#757575" d="M894.32,-63.68C910.52,-66.65 927.88,-69.72 944,-72.35 1010.58,-83.23 1189.61,-76.14 1244.5,-115.35 1299.67,-154.76 1324.61,-236.27 1333.89,-276.23"/>
<polygon fill="#757575" stroke="#757575" points="1330.46,-276.92 1336,-285.95 1337.3,-275.43 1330.46,-276.92"/>
</g>
<!-- src/plane_functions.ts&#45;&gt;src/app_utils.ts -->
<g id="edge29" class="edge">
<title>src/plane_functions.ts&#45;&gt;src/app_utils.ts</title>
<path fill="none" stroke="#757575" d="M835.09,-63.69C858.89,-118.65 955.38,-341.53 986.37,-413.11"/>
<polygon fill="#757575" stroke="#757575" points="982.97,-414.07 990.16,-421.86 989.4,-411.29 982.97,-414.07"/>
</g>
<!-- src/plane_functions.ts&#45;&gt;src/bind.ts -->
<g id="edge30" class="edge">
<title>src/plane_functions.ts&#45;&gt;src/bind.ts</title>
<path fill="none" stroke="#757575" d="M902.19,-51.35C917.23,-51.35 932.74,-51.35 946.71,-51.35"/>
<polygon fill="#757575" stroke="#757575" points="946.53,-54.85 956.53,-51.35 946.53,-47.85 946.53,-54.85"/>
</g>
<!-- src/plugin_register.ts&#45;&gt;src/app_config.ts -->
<g id="edge31" class="edge">
<title>src/plugin_register.ts&#45;&gt;src/app_config.ts</title>
<path fill="none" stroke="#757575" d="M713.9,-396.7C794.93,-395.07 932.93,-389.56 1050,-371.35 1134.64,-358.18 1230.77,-331.83 1287.93,-314.92"/>
<polygon fill="#757575" stroke="#757575" points="1288.8,-318.32 1297.38,-312.11 1286.8,-311.61 1288.8,-318.32"/>
</g>
<!-- src/plugin_register.ts&#45;&gt;src/app_utils.ts -->
<g id="edge32" class="edge">
<title>src/plugin_register.ts&#45;&gt;src/app_utils.ts</title>
<path fill="none" stroke="#757575" d="M713.72,-405.34C725.65,-406.7 737.93,-408.08 749.5,-409.35 811.6,-416.18 882.55,-423.62 932.34,-428.79"/>
<polygon fill="#757575" stroke="#757575" points="931.76,-432.25 942.07,-429.8 932.48,-425.29 931.76,-432.25"/>
</g>
<!-- src/atc_config.ts -->
<g id="node9" class="node">
<title>src/atc_config.ts</title>
<path fill="none" stroke="#cfffac" d="M153.21,-432.22C153.21,-432.22 55.54,-432.22 55.54,-432.22 51.58,-432.22 47.62,-428.27 47.62,-424.31 47.62,-424.31 47.62,-416.39 47.62,-416.39 47.62,-412.43 51.58,-408.47 55.54,-408.47 55.54,-408.47 153.21,-408.47 153.21,-408.47 157.17,-408.47 161.12,-412.43 161.12,-416.39 161.12,-416.39 161.12,-424.31 161.12,-424.31 161.12,-428.27 157.17,-432.22 153.21,-432.22"/>
<text xml:space="preserve" text-anchor="middle" x="104.38" y="-414.92" font-family="Arial" font-size="14.00" fill="#cfffac">src/atc_config.ts</text>
</g>
<!-- src/main/main_dev.ts -->
<g id="node11" class="node">
<title>src/main/main_dev.ts</title>
<path fill="none" stroke="#c6c5fe" d="M168.58,-390.22C168.58,-390.22 40.17,-390.22 40.17,-390.22 36.21,-390.22 32.25,-386.27 32.25,-382.31 32.25,-382.31 32.25,-374.39 32.25,-374.39 32.25,-370.43 36.21,-366.47 40.17,-366.47 40.17,-366.47 168.58,-366.47 168.58,-366.47 172.54,-366.47 176.5,-370.43 176.5,-374.39 176.5,-374.39 176.5,-382.31 176.5,-382.31 176.5,-386.27 172.54,-390.22 168.58,-390.22"/>
<text xml:space="preserve" text-anchor="middle" x="104.38" y="-372.92" font-family="Arial" font-size="14.00" fill="#c6c5fe">src/main/main_dev.ts</text>
</g>
<!-- src/main/main_lib.ts -->
<g id="node12" class="node">
<title>src/main/main_lib.ts</title>
<path fill="none" stroke="#c6c5fe" d="M373.58,-369.22C373.58,-369.22 252.67,-369.22 252.67,-369.22 248.71,-369.22 244.75,-365.27 244.75,-361.31 244.75,-361.31 244.75,-353.39 244.75,-353.39 244.75,-349.43 248.71,-345.47 252.67,-345.47 252.67,-345.47 373.58,-345.47 373.58,-345.47 377.54,-345.47 381.5,-349.43 381.5,-353.39 381.5,-353.39 381.5,-361.31 381.5,-361.31 381.5,-365.27 377.54,-369.22 373.58,-369.22"/>
<text xml:space="preserve" text-anchor="middle" x="313.12" y="-351.92" font-family="Arial" font-size="14.00" fill="#c6c5fe">src/main/main_lib.ts</text>
</g>
<!-- src/main/main_dev.ts&#45;&gt;src/main/main_lib.ts -->
<g id="edge17" class="edge">
<title>src/main/main_dev.ts&#45;&gt;src/main/main_lib.ts</title>
<path fill="none" stroke="#757575" d="M176.82,-371.09C194.99,-369.25 214.62,-367.25 233.14,-365.37"/>
<polygon fill="#757575" stroke="#757575" points="233.41,-368.86 243,-364.37 232.7,-361.9 233.41,-368.86"/>
</g>
<!-- src/main/main_lib.ts&#45;&gt;src/app_comm.ts -->
<g id="edge18" class="edge">
<title>src/main/main_lib.ts&#45;&gt;src/app_comm.ts</title>
<path fill="none" stroke="#757575" d="M317.06,-369.25C326.11,-403.7 356.77,-504.74 417.5,-562.35 420.75,-565.43 424.42,-568.18 428.31,-570.63"/>
<polygon fill="#757575" stroke="#757575" points="426.51,-573.64 436.96,-575.39 429.88,-567.51 426.51,-573.64"/>
</g>
<!-- src/main/main_lib.ts&#45;&gt;src/app_config.ts -->
<g id="edge19" class="edge">
<title>src/main/main_lib.ts&#45;&gt;src/app_config.ts</title>
<path fill="none" stroke="#757575" d="M314.88,-369.46C318.17,-411.07 335.14,-548.94 417.5,-609.35 498.47,-668.74 542.21,-628.35 642.62,-628.35 642.62,-628.35 642.62,-628.35 998,-628.35 1117.43,-628.35 1160.43,-606.18 1244.5,-521.35 1301.2,-464.14 1325.77,-367.48 1334.48,-323.02"/>
<polygon fill="#757575" stroke="#757575" points="1337.92,-323.66 1336.3,-313.19 1331.04,-322.39 1337.92,-323.66"/>
</g>
<!-- src/main/main_lib.ts&#45;&gt;src/app_utils.ts -->
<g id="edge21" class="edge">
<title>src/main/main_lib.ts&#45;&gt;src/app_utils.ts</title>
<path fill="none" stroke="#757575" d="M335.86,-369.61C397.94,-403.83 582.34,-500.01 749.5,-532.35 818.66,-545.73 843.59,-560.88 908,-532.35 942.43,-517.1 969.15,-480.97 983.72,-457.37"/>
<polygon fill="#757575" stroke="#757575" points="986.69,-459.22 988.77,-448.83 980.67,-455.66 986.69,-459.22"/>
</g>
<!-- src/main/main_lib.ts&#45;&gt;src/app_state.ts -->
<g id="edge20" class="edge">
<title>src/main/main_lib.ts&#45;&gt;src/app_state.ts</title>
<path fill="none" stroke="#757575" d="M331.52,-345.15C359.98,-325.18 416.7,-285.39 450.18,-261.9"/>
<polygon fill="#757575" stroke="#757575" points="451.94,-264.94 458.12,-256.33 447.92,-259.21 451.94,-264.94"/>
</g>
<!-- src/main/main_lib.ts&#45;&gt;src/environment.ts -->
<g id="edge23" class="edge">
<title>src/main/main_lib.ts&#45;&gt;src/environment.ts</title>
<path fill="none" stroke="#757575" d="M319.92,-345.06C333.19,-318.32 368.45,-254.67 417.5,-222.35 462.6,-192.63 522.14,-178.41 568.66,-171.6"/>
<polygon fill="#757575" stroke="#757575" points="568.96,-175.09 578.39,-170.27 568.01,-168.16 568.96,-175.09"/>
</g>
<!-- src/main/main_lib.ts&#45;&gt;src/logger.ts -->
<g id="edge24" class="edge">
<title>src/main/main_lib.ts&#45;&gt;src/logger.ts</title>
<path fill="none" stroke="#757575" d="M381.76,-357.35C448.17,-357.35 552.37,-357.35 642.62,-357.35 642.62,-357.35 642.62,-357.35 829.75,-357.35 929.9,-357.35 1044.47,-331.8 1110.19,-314.61"/>
<polygon fill="#757575" stroke="#757575" points="1110.87,-318.05 1119.64,-312.11 1109.07,-311.29 1110.87,-318.05"/>
</g>
<!-- src/main/main_lib.ts&#45;&gt;src/plane_functions.ts -->
<g id="edge25" class="edge">
<title>src/main/main_lib.ts&#45;&gt;src/plane_functions.ts</title>
<path fill="none" stroke="#757575" d="M318.44,-345.27C330.17,-313.79 365.31,-227.87 417.5,-173.35 474.02,-114.3 496.34,-102.59 573.75,-76.35 628.47,-57.8 693.34,-51.66 743.83,-50.1"/>
<polygon fill="#757575" stroke="#757575" points="743.6,-53.61 753.51,-49.86 743.43,-46.61 743.6,-53.61"/>
</g>
<!-- src/main/main_lib.ts&#45;&gt;src/plugin_register.ts -->
<g id="edge26" class="edge">
<title>src/main/main_lib.ts&#45;&gt;src/plugin_register.ts</title>
<path fill="none" stroke="#757575" d="M381.94,-366.73C393.79,-368.31 406,-369.91 417.5,-371.35 465.43,-377.36 519.17,-383.59 562.12,-388.44"/>
<polygon fill="#757575" stroke="#757575" points="561.53,-391.89 571.86,-389.54 562.31,-384.94 561.53,-391.89"/>
</g>
<!-- src/main/main_lib.ts&#45;&gt;src/bind.ts -->
<g id="edge22" class="edge">
<title>src/main/main_lib.ts&#45;&gt;src/bind.ts</title>
<path fill="none" stroke="#757575" d="M314.92,-345.15C318.39,-302.49 335.93,-158.68 417.5,-86.35 568.18,47.28 836.9,-6.66 946.95,-36.55"/>
<polygon fill="#757575" stroke="#757575" points="946,-39.92 956.57,-39.22 947.87,-33.17 946,-39.92"/>
</g>
<!-- src/main/main_prod.ts -->
<g id="node13" class="node">
<title>src/main/main_prod.ts</title>
<path fill="none" stroke="#c6c5fe" d="M171.58,-348.22C171.58,-348.22 37.17,-348.22 37.17,-348.22 33.21,-348.22 29.25,-344.27 29.25,-340.31 29.25,-340.31 29.25,-332.39 29.25,-332.39 29.25,-328.43 33.21,-324.47 37.17,-324.47 37.17,-324.47 171.58,-324.47 171.58,-324.47 175.54,-324.47 179.5,-328.43 179.5,-332.39 179.5,-332.39 179.5,-340.31 179.5,-340.31 179.5,-344.27 175.54,-348.22 171.58,-348.22"/>
<text xml:space="preserve" text-anchor="middle" x="104.38" y="-330.92" font-family="Arial" font-size="14.00" fill="#c6c5fe">src/main/main_prod.ts</text>
</g>
<!-- src/main/main_prod.ts&#45;&gt;src/main/main_lib.ts -->
<g id="edge27" class="edge">
<title>src/main/main_prod.ts&#45;&gt;src/main/main_lib.ts</title>
<path fill="none" stroke="#757575" d="M179.72,-343.9C197.01,-345.66 215.47,-347.53 232.95,-349.31"/>
<polygon fill="#757575" stroke="#757575" points="232.47,-352.78 242.77,-350.3 233.18,-345.81 232.47,-352.78"/>
</g>
<!-- src/res/components/preload.d.ts -->
<g id="node14" class="node">
<title>src/res/components/preload.d.ts</title>
<path fill="none" stroke="#cfffac" d="M200.83,-474.22C200.83,-474.22 7.92,-474.22 7.92,-474.22 3.96,-474.22 0,-470.27 0,-466.31 0,-466.31 0,-458.39 0,-458.39 0,-454.43 3.96,-450.47 7.92,-450.47 7.92,-450.47 200.83,-450.47 200.83,-450.47 204.79,-450.47 208.75,-454.43 208.75,-458.39 208.75,-458.39 208.75,-466.31 208.75,-466.31 208.75,-470.27 204.79,-474.22 200.83,-474.22"/>
<text xml:space="preserve" text-anchor="middle" x="104.38" y="-456.92" font-family="Arial" font-size="14.00" fill="#cfffac">src/res/components/preload.d.ts</text>
</g>
<!-- src/res/components/preload.ts -->
<g id="node15" class="node">
<title>src/res/components/preload.ts</title>
<path fill="none" stroke="#cfffac" d="M195.21,-516.22C195.21,-516.22 13.54,-516.22 13.54,-516.22 9.58,-516.22 5.62,-512.27 5.62,-508.31 5.62,-508.31 5.62,-500.39 5.62,-500.39 5.62,-496.43 9.58,-492.47 13.54,-492.47 13.54,-492.47 195.21,-492.47 195.21,-492.47 199.17,-492.47 203.12,-496.43 203.12,-500.39 203.12,-500.39 203.12,-508.31 203.12,-508.31 203.12,-512.27 199.17,-516.22 195.21,-516.22"/>
<text xml:space="preserve" text-anchor="middle" x="104.38" y="-498.92" font-family="Arial" font-size="14.00" fill="#cfffac">src/res/components/preload.ts</text>
</g>
<!-- src/res/components/utils.ts -->
<g id="node16" class="node">
<title>src/res/components/utils.ts</title>
<path fill="none" stroke="#cfffac" d="M184.71,-558.22C184.71,-558.22 24.04,-558.22 24.04,-558.22 20.08,-558.22 16.12,-554.27 16.12,-550.31 16.12,-550.31 16.12,-542.39 16.12,-542.39 16.12,-538.43 20.08,-534.47 24.04,-534.47 24.04,-534.47 184.71,-534.47 184.71,-534.47 188.67,-534.47 192.62,-538.43 192.62,-542.39 192.62,-542.39 192.62,-550.31 192.62,-550.31 192.62,-554.27 188.67,-558.22 184.71,-558.22"/>
<text xml:space="preserve" text-anchor="middle" x="104.38" y="-540.92" font-family="Arial" font-size="14.00" fill="#cfffac">src/res/components/utils.ts</text>
</g>
<!-- src/vite&#45;env.d.ts -->
<g id="node17" class="node">
<title>src/vite&#45;env.d.ts</title>
<path fill="none" stroke="#cfffac" d="M151.33,-600.22C151.33,-600.22 57.42,-600.22 57.42,-600.22 53.46,-600.22 49.5,-596.27 49.5,-592.31 49.5,-592.31 49.5,-584.39 49.5,-584.39 49.5,-580.43 53.46,-576.47 57.42,-576.47 57.42,-576.47 151.33,-576.47 151.33,-576.47 155.29,-576.47 159.25,-580.43 159.25,-584.39 159.25,-584.39 159.25,-592.31 159.25,-592.31 159.25,-596.27 155.29,-600.22 151.33,-600.22"/>
<text xml:space="preserve" text-anchor="middle" x="104.38" y="-582.92" font-family="Arial" font-size="14.00" fill="#cfffac">src/vite&#45;env.d.ts</text>
</g>
<!-- src/workers/backend.ts -->
<g id="node18" class="node">
<title>src/workers/backend.ts</title>
<path fill="none" stroke="#cfffac" d="M173.46,-642.22C173.46,-642.22 35.29,-642.22 35.29,-642.22 31.33,-642.22 27.38,-638.27 27.38,-634.31 27.38,-634.31 27.38,-626.39 27.38,-626.39 27.38,-622.43 31.33,-618.47 35.29,-618.47 35.29,-618.47 173.46,-618.47 173.46,-618.47 177.42,-618.47 181.38,-622.43 181.38,-626.39 181.38,-626.39 181.38,-634.31 181.38,-634.31 181.38,-638.27 177.42,-642.22 173.46,-642.22"/>
<text xml:space="preserve" text-anchor="middle" x="104.38" y="-624.92" font-family="Arial" font-size="14.00" fill="#cfffac">src/workers/backend.ts</text>
</g>
<!-- src/workers/database.ts -->
<g id="node19" class="node">
<title>src/workers/database.ts</title>
<path fill="none" stroke="#c6c5fe" d="M1236.58,-63.22C1236.58,-63.22 1093.92,-63.22 1093.92,-63.22 1089.96,-63.22 1086,-59.27 1086,-55.31 1086,-55.31 1086,-47.39 1086,-47.39 1086,-43.43 1089.96,-39.47 1093.92,-39.47 1093.92,-39.47 1236.58,-39.47 1236.58,-39.47 1240.54,-39.47 1244.5,-43.43 1244.5,-47.39 1244.5,-47.39 1244.5,-55.31 1244.5,-55.31 1244.5,-59.27 1240.54,-63.22 1236.58,-63.22"/>
<text xml:space="preserve" text-anchor="middle" x="1165.25" y="-45.92" font-family="Arial" font-size="14.00" fill="#c6c5fe">src/workers/database.ts</text>
</g>
<!-- src/workers/database.ts&#45;&gt;src/app_config.ts -->
<g id="edge33" class="edge">
<title>src/workers/database.ts&#45;&gt;src/app_config.ts</title>
<path fill="none" stroke="#757575" d="M1222.92,-63.66C1230.79,-67.15 1238.29,-71.62 1244.5,-77.35 1303.95,-132.24 1327.22,-230.83 1335.05,-275.81"/>
<polygon fill="#757575" stroke="#757575" points="1331.56,-276.2 1336.62,-285.51 1338.47,-275.07 1331.56,-276.2"/>
</g>
<!-- src/workers/sim_time.ts -->
<g id="node20" class="node">
<title>src/workers/sim_time.ts</title>
<path fill="none" stroke="#c6c5fe" d="M900.08,-523.22C900.08,-523.22 757.42,-523.22 757.42,-523.22 753.46,-523.22 749.5,-519.27 749.5,-515.31 749.5,-515.31 749.5,-507.39 749.5,-507.39 749.5,-503.43 753.46,-499.47 757.42,-499.47 757.42,-499.47 900.08,-499.47 900.08,-499.47 904.04,-499.47 908,-503.43 908,-507.39 908,-507.39 908,-515.31 908,-515.31 908,-519.27 904.04,-523.22 900.08,-523.22"/>
<text xml:space="preserve" text-anchor="middle" x="828.75" y="-505.92" font-family="Arial" font-size="14.00" fill="#c6c5fe">src/workers/sim_time.ts</text>
</g>
<!-- src/workers/sim_time.ts&#45;&gt;src/app_utils.ts -->
<g id="edge34" class="edge">
<title>src/workers/sim_time.ts&#45;&gt;src/app_utils.ts</title>
<path fill="none" stroke="#757575" d="M871.75,-499.07C883.65,-495.14 896.49,-490.47 908,-485.35 928.47,-476.24 950.39,-463.8 967.23,-453.6"/>
<polygon fill="#757575" stroke="#757575" points="969.02,-456.61 975.71,-448.39 965.35,-450.64 969.02,-456.61"/>
</g>
<!-- vite.config.ts -->
<g id="node21" class="node">
<title>vite.config.ts</title>
<path fill="none" stroke="#cfffac" d="M141.96,-684.22C141.96,-684.22 66.79,-684.22 66.79,-684.22 62.83,-684.22 58.88,-680.27 58.88,-676.31 58.88,-676.31 58.88,-668.39 58.88,-668.39 58.88,-664.43 62.83,-660.47 66.79,-660.47 66.79,-660.47 141.96,-660.47 141.96,-660.47 145.92,-660.47 149.88,-664.43 149.88,-668.39 149.88,-668.39 149.88,-676.31 149.88,-676.31 149.88,-680.27 145.92,-684.22 141.96,-684.22"/>
<text xml:space="preserve" text-anchor="middle" x="104.38" y="-666.92" font-family="Arial" font-size="14.00" fill="#cfffac">vite.config.ts</text>
</g>
</g>
</svg>
