<?xml version="1.0" encoding="UTF-8" standalone="no"?>
<!DOCTYPE svg PUBLIC "-//W3C//DTD SVG 1.1//EN"
 "http://www.w3.org/Graphics/SVG/1.1/DTD/svg11.dtd">
<!-- Generated by graphviz version 14.0.2 (0)
 -->
<!-- Title: G Pages: 1 -->
<svg width="1203pt" height="654pt"
 viewBox="0.00 0.00 1203.00 654.00" xmlns="http://www.w3.org/2000/svg" xmlns:xlink="http://www.w3.org/1999/xlink">
<g id="graph0" class="graph" transform="scale(1 1) rotate(0) translate(21.6 632.35)">
<title>G</title>
<polygon fill="#111111" stroke="none" points="-21.6,21.6 -21.6,-632.35 1181.35,-632.35 1181.35,21.6 -21.6,21.6"/>
<!-- src/app_comm.ts -->
<g id="node1" class="node">
<title>src/app_comm.ts</title>
<path fill="none" stroke="#c6c5fe" d="M533.21,-333.75C533.21,-333.75 428.79,-333.75 428.79,-333.75 424.83,-333.75 420.88,-329.79 420.88,-325.83 420.88,-325.83 420.88,-317.92 420.88,-317.92 420.88,-313.96 424.83,-310 428.79,-310 428.79,-310 533.21,-310 533.21,-310 537.17,-310 541.12,-313.96 541.12,-317.92 541.12,-317.92 541.12,-325.83 541.12,-325.83 541.12,-329.79 537.17,-333.75 533.21,-333.75"/>
<text xml:space="preserve" text-anchor="middle" x="481" y="-316.45" font-family="Arial" font-size="14.00" fill="#c6c5fe">src/app_comm.ts</text>
</g>
<!-- src/app_config.ts -->
<g id="node2" class="node">
<title>src/app_config.ts</title>
<path fill="none" stroke="#ff6c60" d="M885.08,-373.75C885.08,-373.75 782.92,-373.75 782.92,-373.75 778.96,-373.75 775,-369.79 775,-365.83 775,-365.83 775,-357.92 775,-357.92 775,-353.96 778.96,-350 782.92,-350 782.92,-350 885.08,-350 885.08,-350 889.04,-350 893,-353.96 893,-357.92 893,-357.92 893,-365.83 893,-365.83 893,-369.79 889.04,-373.75 885.08,-373.75"/>
<text xml:space="preserve" text-anchor="middle" x="834" y="-356.45" font-family="Arial" font-size="14.00" fill="#ff6c60">src/app_config.ts</text>
</g>
<!-- src/app_comm.ts&#45;&gt;src/app_config.ts -->
<g id="edge1" class="edge">
<title>src/app_comm.ts&#45;&gt;src/app_config.ts</title>
<path fill="none" stroke="#757575" d="M489.33,-333.99C503.6,-356.25 537.51,-403.01 580.5,-420.88 645.55,-447.92 671.3,-440.36 739,-420.88 765.96,-413.11 792.67,-395.09 810.68,-380.99"/>
<polygon fill="#757575" stroke="#757575" points="812.51,-384.02 818.09,-375.01 808.11,-378.57 812.51,-384.02"/>
</g>
<!-- src/app_utils.ts -->
<g id="node3" class="node">
<title>src/app_utils.ts</title>
<path fill="none" stroke="#ff6c60" d="M1027.08,-324.75C1027.08,-324.75 936.92,-324.75 936.92,-324.75 932.96,-324.75 929,-320.79 929,-316.83 929,-316.83 929,-308.92 929,-308.92 929,-304.96 932.96,-301 936.92,-301 936.92,-301 1027.08,-301 1027.08,-301 1031.04,-301 1035,-304.96 1035,-308.92 1035,-308.92 1035,-316.83 1035,-316.83 1035,-320.79 1031.04,-324.75 1027.08,-324.75"/>
<text xml:space="preserve" text-anchor="middle" x="982" y="-307.45" font-family="Arial" font-size="14.00" fill="#ff6c60">src/app_utils.ts</text>
</g>
<!-- src/app_comm.ts&#45;&gt;src/app_utils.ts -->
<g id="edge2" class="edge">
<title>src/app_comm.ts&#45;&gt;src/app_utils.ts</title>
<path fill="none" stroke="#757575" d="M541.2,-320.81C635.72,-319.1 819.94,-315.78 917.25,-314.02"/>
<polygon fill="#757575" stroke="#757575" points="917.23,-317.53 927.16,-313.85 917.1,-310.53 917.23,-317.53"/>
</g>
<!-- src/app_config.ts&#45;&gt;src/app_utils.ts -->
<g id="edge3" class="edge">
<title>src/app_config.ts&#45;&gt;src/app_utils.ts</title>
<path fill="none" stroke="#757575" d="M856.86,-349.56C873.05,-342.74 896,-334.46 917.77,-327.4"/>
<polygon fill="#757575" stroke="#757575" points="918.75,-330.76 927.22,-324.4 916.63,-324.09 918.75,-330.76"/>
</g>
<!-- src/logger.ts -->
<g id="node4" class="node">
<title>src/logger.ts</title>
<path fill="none" stroke="#ff6c60" d="M1151.83,-324.75C1151.83,-324.75 1078.92,-324.75 1078.92,-324.75 1074.96,-324.75 1071,-320.79 1071,-316.83 1071,-316.83 1071,-308.92 1071,-308.92 1071,-304.96 1074.96,-301 1078.92,-301 1078.92,-301 1151.83,-301 1151.83,-301 1155.79,-301 1159.75,-304.96 1159.75,-308.92 1159.75,-308.92 1159.75,-316.83 1159.75,-316.83 1159.75,-320.79 1155.79,-324.75 1151.83,-324.75"/>
<text xml:space="preserve" text-anchor="middle" x="1115.38" y="-307.45" font-family="Arial" font-size="14.00" fill="#ff6c60">src/logger.ts</text>
</g>
<!-- src/app_config.ts&#45;&gt;src/logger.ts -->
<g id="edge4" class="edge">
<title>src/app_config.ts&#45;&gt;src/logger.ts</title>
<path fill="none" stroke="#757575" d="M883.36,-349.54C924.04,-343.04 983.62,-335.23 1035,-324.88 1042.97,-323.27 1051.34,-321.33 1059.52,-319.4"/>
<polygon fill="#757575" stroke="#757575" points="1060.12,-322.85 1069.04,-317.14 1058.5,-316.04 1060.12,-322.85"/>
</g>
<!-- src/app_utils.ts&#45;&gt;src/app_config.ts -->
<g id="edge5" class="edge">
<title>src/app_utils.ts&#45;&gt;src/app_config.ts</title>
<path fill="none" stroke="#757575" d="M959.31,-325.12C944.08,-331.55 922.8,-339.28 902.15,-346.07"/>
<polygon fill="#757575" stroke="#757575" points="901.33,-342.66 892.89,-349.06 903.48,-349.32 901.33,-342.66"/>
</g>
<!-- src/app_utils.ts&#45;&gt;src/logger.ts -->
<g id="edge6" class="edge">
<title>src/app_utils.ts&#45;&gt;src/logger.ts</title>
<path fill="none" stroke="#757575" d="M1035.3,-312.88C1043.18,-312.88 1051.34,-312.88 1059.28,-312.88"/>
<polygon fill="#757575" stroke="#757575" points="1059.19,-316.38 1069.19,-312.88 1059.19,-309.38 1059.19,-316.38"/>
</g>
<!-- src/logger.ts&#45;&gt;src/app_config.ts -->
<g id="edge12" class="edge">
<title>src/logger.ts&#45;&gt;src/app_config.ts</title>
<path fill="none" stroke="#757575" d="M1096.86,-325.2C1080.87,-331.82 1056.52,-338.54 1035,-342.88 991.83,-351.57 942.88,-358.48 904.21,-362.19"/>
<polygon fill="#757575" stroke="#757575" points="904.23,-358.67 894.58,-363.06 904.85,-365.65 904.23,-358.67"/>
</g>
<!-- src/app_state.ts -->
<g id="node5" class="node">
<title>src/app_state.ts</title>
<path fill="none" stroke="#cfffac" d="M528.71,-23.75C528.71,-23.75 433.29,-23.75 433.29,-23.75 429.33,-23.75 425.38,-19.79 425.38,-15.83 425.38,-15.83 425.38,-7.92 425.38,-7.92 425.38,-3.96 429.33,0 433.29,0 433.29,0 528.71,0 528.71,0 532.67,0 536.62,-3.96 536.62,-7.92 536.62,-7.92 536.62,-15.83 536.62,-15.83 536.62,-19.79 532.67,-23.75 528.71,-23.75"/>
<text xml:space="preserve" text-anchor="middle" x="481" y="-6.45" font-family="Arial" font-size="14.00" fill="#cfffac">src/app_state.ts</text>
</g>
<!-- src/atc_config.ts -->
<g id="node6" class="node">
<title>src/atc_config.ts</title>
<path fill="none" stroke="#cfffac" d="M153.21,-316.75C153.21,-316.75 55.54,-316.75 55.54,-316.75 51.58,-316.75 47.62,-312.79 47.62,-308.83 47.62,-308.83 47.62,-300.92 47.62,-300.92 47.62,-296.96 51.58,-293 55.54,-293 55.54,-293 153.21,-293 153.21,-293 157.17,-293 161.12,-296.96 161.12,-300.92 161.12,-300.92 161.12,-308.83 161.12,-308.83 161.12,-312.79 157.17,-316.75 153.21,-316.75"/>
<text xml:space="preserve" text-anchor="middle" x="104.38" y="-299.45" font-family="Arial" font-size="14.00" fill="#cfffac">src/atc_config.ts</text>
</g>
<!-- src/bind.ts -->
<g id="node7" class="node">
<title>src/bind.ts</title>
<path fill="none" stroke="#cfffac" d="M864.83,-214.75C864.83,-214.75 803.17,-214.75 803.17,-214.75 799.21,-214.75 795.25,-210.79 795.25,-206.83 795.25,-206.83 795.25,-198.92 795.25,-198.92 795.25,-194.96 799.21,-191 803.17,-191 803.17,-191 864.83,-191 864.83,-191 868.79,-191 872.75,-194.96 872.75,-198.92 872.75,-198.92 872.75,-206.83 872.75,-206.83 872.75,-210.79 868.79,-214.75 864.83,-214.75"/>
<text xml:space="preserve" text-anchor="middle" x="834" y="-197.45" font-family="Arial" font-size="14.00" fill="#cfffac">src/bind.ts</text>
</g>
<!-- src/environment.ts -->
<g id="node8" class="node">
<title>src/environment.ts</title>
<path fill="none" stroke="#c6c5fe" d="M536.58,-253.75C536.58,-253.75 425.42,-253.75 425.42,-253.75 421.46,-253.75 417.5,-249.79 417.5,-245.83 417.5,-245.83 417.5,-237.92 417.5,-237.92 417.5,-233.96 421.46,-230 425.42,-230 425.42,-230 536.58,-230 536.58,-230 540.54,-230 544.5,-233.96 544.5,-237.92 544.5,-237.92 544.5,-245.83 544.5,-245.83 544.5,-249.79 540.54,-253.75 536.58,-253.75"/>
<text xml:space="preserve" text-anchor="middle" x="481" y="-236.45" font-family="Arial" font-size="14.00" fill="#c6c5fe">src/environment.ts</text>
</g>
<!-- src/environment.ts&#45;&gt;src/app_config.ts -->
<g id="edge7" class="edge">
<title>src/environment.ts&#45;&gt;src/app_config.ts</title>
<path fill="none" stroke="#757575" d="M498.18,-254.21C517,-267.99 549.46,-290.04 580.5,-302.88 639.99,-327.47 711.81,-343 763.62,-351.91"/>
<polygon fill="#757575" stroke="#757575" points="762.76,-355.32 773.2,-353.52 763.91,-348.41 762.76,-355.32"/>
</g>
<!-- src/environment.ts&#45;&gt;src/app_utils.ts -->
<g id="edge8" class="edge">
<title>src/environment.ts&#45;&gt;src/app_utils.ts</title>
<path fill="none" stroke="#757575" d="M544.78,-244.54C596.94,-247.23 673.01,-252.25 739,-260.88 808.06,-269.9 825.04,-274.62 893,-289.88 903.52,-292.24 914.69,-294.98 925.41,-297.72"/>
<polygon fill="#757575" stroke="#757575" points="924.36,-301.06 934.91,-300.19 926.12,-294.29 924.36,-301.06"/>
</g>
<!-- src/environment.ts&#45;&gt;src/logger.ts -->
<g id="edge10" class="edge">
<title>src/environment.ts&#45;&gt;src/logger.ts</title>
<path fill="none" stroke="#757575" d="M511.15,-229.56C579.13,-202.57 753.03,-143.56 893,-181.88 972.81,-203.72 1053.07,-262.57 1091.31,-293.42"/>
<polygon fill="#757575" stroke="#757575" points="1088.97,-296.03 1098.93,-299.66 1093.41,-290.61 1088.97,-296.03"/>
</g>
<!-- src/environment.ts&#45;&gt;src/bind.ts -->
<g id="edge9" class="edge">
<title>src/environment.ts&#45;&gt;src/bind.ts</title>
<path fill="none" stroke="#757575" d="M544.74,-232.55C556.61,-230.9 568.92,-229.27 580.5,-227.88 650.9,-219.39 732.59,-211.69 783.55,-207.15"/>
<polygon fill="#757575" stroke="#757575" points="783.71,-210.64 793.37,-206.28 783.1,-203.67 783.71,-210.64"/>
</g>
<!-- src/plane_functions.ts -->
<g id="node9" class="node">
<title>src/plane_functions.ts</title>
<path fill="none" stroke="#c6c5fe" d="M725.08,-293.75C725.08,-293.75 594.42,-293.75 594.42,-293.75 590.46,-293.75 586.5,-289.79 586.5,-285.83 586.5,-285.83 586.5,-277.92 586.5,-277.92 586.5,-273.96 590.46,-270 594.42,-270 594.42,-270 725.08,-270 725.08,-270 729.04,-270 733,-273.96 733,-277.92 733,-277.92 733,-285.83 733,-285.83 733,-289.79 729.04,-293.75 725.08,-293.75"/>
<text xml:space="preserve" text-anchor="middle" x="659.75" y="-276.45" font-family="Arial" font-size="14.00" fill="#c6c5fe">src/plane_functions.ts</text>
</g>
<!-- src/environment.ts&#45;&gt;src/plane_functions.ts -->
<g id="edge11" class="edge">
<title>src/environment.ts&#45;&gt;src/plane_functions.ts</title>
<path fill="none" stroke="#757575" d="M536.47,-254.2C554.36,-258.25 574.44,-262.8 593.07,-267.01"/>
<polygon fill="#757575" stroke="#757575" points="592.15,-270.39 602.68,-269.19 593.7,-263.56 592.15,-270.39"/>
</g>
<!-- src/plane_functions.ts&#45;&gt;src/app_config.ts -->
<g id="edge24" class="edge">
<title>src/plane_functions.ts&#45;&gt;src/app_config.ts</title>
<path fill="none" stroke="#757575" d="M687.29,-294.2C716.49,-307.77 763.64,-329.66 796.36,-344.86"/>
<polygon fill="#757575" stroke="#757575" points="794.52,-347.86 805.06,-348.9 797.47,-341.51 794.52,-347.86"/>
</g>
<!-- src/plane_functions.ts&#45;&gt;src/app_utils.ts -->
<g id="edge25" class="edge">
<title>src/plane_functions.ts&#45;&gt;src/app_utils.ts</title>
<path fill="none" stroke="#757575" d="M733.42,-288.91C788.78,-294.27 864.26,-301.57 917.28,-306.71"/>
<polygon fill="#757575" stroke="#757575" points="916.77,-310.17 927.06,-307.65 917.45,-303.21 916.77,-310.17"/>
</g>
<!-- src/plane_functions.ts&#45;&gt;src/bind.ts -->
<g id="edge26" class="edge">
<title>src/plane_functions.ts&#45;&gt;src/bind.ts</title>
<path fill="none" stroke="#757575" d="M687.66,-269.53C716.74,-256.2 763.26,-234.86 795.81,-219.93"/>
<polygon fill="#757575" stroke="#757575" points="797.27,-223.11 804.9,-215.76 794.35,-216.75 797.27,-223.11"/>
</g>
<!-- src/main/main_dev.ts -->
<g id="node10" class="node">
<title>src/main/main_dev.ts</title>
<path fill="none" stroke="#c6c5fe" d="M168.58,-274.75C168.58,-274.75 40.17,-274.75 40.17,-274.75 36.21,-274.75 32.25,-270.79 32.25,-266.83 32.25,-266.83 32.25,-258.92 32.25,-258.92 32.25,-254.96 36.21,-251 40.17,-251 40.17,-251 168.58,-251 168.58,-251 172.54,-251 176.5,-254.96 176.5,-258.92 176.5,-258.92 176.5,-266.83 176.5,-266.83 176.5,-270.79 172.54,-274.75 168.58,-274.75"/>
<text xml:space="preserve" text-anchor="middle" x="104.38" y="-257.45" font-family="Arial" font-size="14.00" fill="#c6c5fe">src/main/main_dev.ts</text>
</g>
<!-- src/main/main_lib.ts -->
<g id="node11" class="node">
<title>src/main/main_lib.ts</title>
<path fill="none" stroke="#c6c5fe" d="M373.58,-253.75C373.58,-253.75 252.67,-253.75 252.67,-253.75 248.71,-253.75 244.75,-249.79 244.75,-245.83 244.75,-245.83 244.75,-237.92 244.75,-237.92 244.75,-233.96 248.71,-230 252.67,-230 252.67,-230 373.58,-230 373.58,-230 377.54,-230 381.5,-233.96 381.5,-237.92 381.5,-237.92 381.5,-245.83 381.5,-245.83 381.5,-249.79 377.54,-253.75 373.58,-253.75"/>
<text xml:space="preserve" text-anchor="middle" x="313.12" y="-236.45" font-family="Arial" font-size="14.00" fill="#c6c5fe">src/main/main_lib.ts</text>
</g>
<!-- src/main/main_dev.ts&#45;&gt;src/main/main_lib.ts -->
<g id="edge13" class="edge">
<title>src/main/main_dev.ts&#45;&gt;src/main/main_lib.ts</title>
<path fill="none" stroke="#757575" d="M176.82,-255.62C194.99,-253.77 214.62,-251.78 233.14,-249.9"/>
<polygon fill="#757575" stroke="#757575" points="233.41,-253.39 243,-248.9 232.7,-246.42 233.41,-253.39"/>
</g>
<!-- src/main/main_lib.ts&#45;&gt;src/app_comm.ts -->
<g id="edge14" class="edge">
<title>src/main/main_lib.ts&#45;&gt;src/app_comm.ts</title>
<path fill="none" stroke="#757575" d="M336.43,-254.25C357.17,-265.58 389.08,-282.57 417.5,-295.88 424.29,-299.06 431.58,-302.27 438.7,-305.29"/>
<polygon fill="#757575" stroke="#757575" points="436.96,-308.36 447.53,-308.99 439.66,-301.9 436.96,-308.36"/>
</g>
<!-- src/main/main_lib.ts&#45;&gt;src/app_config.ts -->
<g id="edge15" class="edge">
<title>src/main/main_lib.ts&#45;&gt;src/app_config.ts</title>
<path fill="none" stroke="#757575" d="M324.08,-254.19C356.15,-292.66 461.6,-410.02 580.5,-443.88 648.25,-463.16 676.89,-477.11 739,-443.88 764.43,-430.26 753.24,-408.81 775,-389.88 779.42,-386.03 784.46,-382.58 789.68,-379.53"/>
<polygon fill="#757575" stroke="#757575" points="791.29,-382.64 798.5,-374.87 788.02,-376.46 791.29,-382.64"/>
</g>
<!-- src/main/main_lib.ts&#45;&gt;src/app_utils.ts -->
<g id="edge17" class="edge">
<title>src/main/main_lib.ts&#45;&gt;src/app_utils.ts</title>
<path fill="none" stroke="#757575" d="M339.75,-229.62C424.58,-190.95 701.74,-79.95 893,-181.88 935.88,-204.73 961.58,-258.78 973.33,-289.85"/>
<polygon fill="#757575" stroke="#757575" points="969.97,-290.86 976.64,-299.09 976.56,-288.49 969.97,-290.86"/>
</g>
<!-- src/main/main_lib.ts&#45;&gt;src/logger.ts -->
<g id="edge20" class="edge">
<title>src/main/main_lib.ts&#45;&gt;src/logger.ts</title>
<path fill="none" stroke="#757575" d="M325.64,-229.7C366.62,-187.77 510.83,-51.88 658.75,-51.88 658.75,-51.88 658.75,-51.88 835,-51.88 974.32,-51.88 1072.99,-227.33 1104.01,-290.53"/>
<polygon fill="#757575" stroke="#757575" points="1100.73,-291.77 1108.21,-299.27 1107.04,-288.74 1100.73,-291.77"/>
</g>
<!-- src/main/main_lib.ts&#45;&gt;src/app_state.ts -->
<g id="edge16" class="edge">
<title>src/main/main_lib.ts&#45;&gt;src/app_state.ts</title>
<path fill="none" stroke="#757575" d="M317.02,-229.98C325.97,-195.53 356.38,-94.59 417.5,-37.88 420.8,-34.81 424.51,-32.09 428.43,-29.66"/>
<polygon fill="#757575" stroke="#757575" points="430.03,-32.78 437.18,-24.96 426.72,-26.61 430.03,-32.78"/>
</g>
<!-- src/main/main_lib.ts&#45;&gt;src/bind.ts -->
<g id="edge18" class="edge">
<title>src/main/main_lib.ts&#45;&gt;src/bind.ts</title>
<path fill="none" stroke="#757575" d="M368.63,-229.52C384.34,-226.31 401.54,-223.12 417.5,-220.88 548.75,-202.38 705.42,-201.15 783.57,-201.94"/>
<polygon fill="#757575" stroke="#757575" points="783.41,-205.44 793.45,-202.06 783.49,-198.44 783.41,-205.44"/>
</g>
<!-- src/main/main_lib.ts&#45;&gt;src/environment.ts -->
<g id="edge19" class="edge">
<title>src/main/main_lib.ts&#45;&gt;src/environment.ts</title>
<path fill="none" stroke="#757575" d="M381.59,-241.88C389.58,-241.88 397.76,-241.88 405.84,-241.88"/>
<polygon fill="#757575" stroke="#757575" points="405.63,-245.38 415.63,-241.88 405.63,-238.38 405.63,-245.38"/>
</g>
<!-- src/main/main_lib.ts&#45;&gt;src/plane_functions.ts -->
<g id="edge21" class="edge">
<title>src/main/main_lib.ts&#45;&gt;src/plane_functions.ts</title>
<path fill="none" stroke="#757575" d="M368.63,-254.24C384.34,-257.45 401.54,-260.63 417.5,-262.88 469.58,-270.19 528.41,-274.89 574.94,-277.79"/>
<polygon fill="#757575" stroke="#757575" points="574.48,-281.27 584.68,-278.38 574.91,-274.28 574.48,-281.27"/>
</g>
<!-- src/plugin_register.ts -->
<g id="node12" class="node">
<title>src/plugin_register.ts</title>
<path fill="none" stroke="#c6c5fe" d="M721.71,-529.75C721.71,-529.75 597.79,-529.75 597.79,-529.75 593.83,-529.75 589.88,-525.79 589.88,-521.83 589.88,-521.83 589.88,-513.92 589.88,-513.92 589.88,-509.96 593.83,-506 597.79,-506 597.79,-506 721.71,-506 721.71,-506 725.67,-506 729.62,-509.96 729.62,-513.92 729.62,-513.92 729.62,-521.83 729.62,-521.83 729.62,-525.79 725.67,-529.75 721.71,-529.75"/>
<text xml:space="preserve" text-anchor="middle" x="659.75" y="-512.45" font-family="Arial" font-size="14.00" fill="#c6c5fe">src/plugin_register.ts</text>
</g>
<!-- src/main/main_lib.ts&#45;&gt;src/plugin_register.ts -->
<g id="edge22" class="edge">
<title>src/main/main_lib.ts&#45;&gt;src/plugin_register.ts</title>
<path fill="none" stroke="#757575" d="M314.99,-254.11C318.62,-295.52 336.5,-431.18 417.5,-491.88 462.95,-525.93 527.43,-531.33 578.29,-528.81"/>
<polygon fill="#757575" stroke="#757575" points="578.31,-532.31 588.07,-528.2 577.88,-525.33 578.31,-532.31"/>
</g>
<!-- src/plugin_register.ts&#45;&gt;src/app_config.ts -->
<g id="edge27" class="edge">
<title>src/plugin_register.ts&#45;&gt;src/app_config.ts</title>
<path fill="none" stroke="#757575" d="M713.08,-505.56C722.22,-502.03 731.27,-497.55 739,-491.88 744.31,-487.98 793.12,-418.83 818.23,-383.01"/>
<polygon fill="#757575" stroke="#757575" points="820.89,-385.31 823.76,-375.11 815.15,-381.3 820.89,-385.31"/>
</g>
<!-- src/plugin_register.ts&#45;&gt;src/app_utils.ts -->
<g id="edge28" class="edge">
<title>src/plugin_register.ts&#45;&gt;src/app_utils.ts</title>
<path fill="none" stroke="#757575" d="M705.54,-505.51C716.73,-501.75 728.53,-497.17 739,-491.88 828.12,-446.79 919.05,-369.26 959.42,-332.86"/>
<polygon fill="#757575" stroke="#757575" points="961.74,-335.47 966.78,-326.15 957.03,-330.29 961.74,-335.47"/>
</g>
<!-- src/main/main_prod.ts -->
<g id="node13" class="node">
<title>src/main/main_prod.ts</title>
<path fill="none" stroke="#c6c5fe" d="M171.58,-232.75C171.58,-232.75 37.17,-232.75 37.17,-232.75 33.21,-232.75 29.25,-228.79 29.25,-224.83 29.25,-224.83 29.25,-216.92 29.25,-216.92 29.25,-212.96 33.21,-209 37.17,-209 37.17,-209 171.58,-209 171.58,-209 175.54,-209 179.5,-212.96 179.5,-216.92 179.5,-216.92 179.5,-224.83 179.5,-224.83 179.5,-228.79 175.54,-232.75 171.58,-232.75"/>
<text xml:space="preserve" text-anchor="middle" x="104.38" y="-215.45" font-family="Arial" font-size="14.00" fill="#c6c5fe">src/main/main_prod.ts</text>
</g>
<!-- src/main/main_prod.ts&#45;&gt;src/main/main_lib.ts -->
<g id="edge23" class="edge">
<title>src/main/main_prod.ts&#45;&gt;src/main/main_lib.ts</title>
<path fill="none" stroke="#757575" d="M179.72,-228.43C197.01,-230.18 215.47,-232.06 232.95,-233.83"/>
<polygon fill="#757575" stroke="#757575" points="232.47,-237.3 242.77,-234.83 233.18,-230.34 232.47,-237.3"/>
</g>
<!-- src/res/components/preload.d.ts -->
<g id="node14" class="node">
<title>src/res/components/preload.d.ts</title>
<path fill="none" stroke="#cfffac" d="M200.83,-358.75C200.83,-358.75 7.92,-358.75 7.92,-358.75 3.96,-358.75 0,-354.79 0,-350.83 0,-350.83 0,-342.92 0,-342.92 0,-338.96 3.96,-335 7.92,-335 7.92,-335 200.83,-335 200.83,-335 204.79,-335 208.75,-338.96 208.75,-342.92 208.75,-342.92 208.75,-350.83 208.75,-350.83 208.75,-354.79 204.79,-358.75 200.83,-358.75"/>
<text xml:space="preserve" text-anchor="middle" x="104.38" y="-341.45" font-family="Arial" font-size="14.00" fill="#cfffac">src/res/components/preload.d.ts</text>
</g>
<!-- src/res/components/preload.ts -->
<g id="node15" class="node">
<title>src/res/components/preload.ts</title>
<path fill="none" stroke="#cfffac" d="M195.21,-400.75C195.21,-400.75 13.54,-400.75 13.54,-400.75 9.58,-400.75 5.62,-396.79 5.62,-392.83 5.62,-392.83 5.62,-384.92 5.62,-384.92 5.62,-380.96 9.58,-377 13.54,-377 13.54,-377 195.21,-377 195.21,-377 199.17,-377 203.12,-380.96 203.12,-384.92 203.12,-384.92 203.12,-392.83 203.12,-392.83 203.12,-396.79 199.17,-400.75 195.21,-400.75"/>
<text xml:space="preserve" text-anchor="middle" x="104.38" y="-383.45" font-family="Arial" font-size="14.00" fill="#cfffac">src/res/components/preload.ts</text>
</g>
<!-- src/res/components/utils.ts -->
<g id="node16" class="node">
<title>src/res/components/utils.ts</title>
<path fill="none" stroke="#cfffac" d="M184.71,-442.75C184.71,-442.75 24.04,-442.75 24.04,-442.75 20.08,-442.75 16.12,-438.79 16.12,-434.83 16.12,-434.83 16.12,-426.92 16.12,-426.92 16.12,-422.96 20.08,-419 24.04,-419 24.04,-419 184.71,-419 184.71,-419 188.67,-419 192.62,-422.96 192.62,-426.92 192.62,-426.92 192.62,-434.83 192.62,-434.83 192.62,-438.79 188.67,-442.75 184.71,-442.75"/>
<text xml:space="preserve" text-anchor="middle" x="104.38" y="-425.45" font-family="Arial" font-size="14.00" fill="#cfffac">src/res/components/utils.ts</text>
</g>
<!-- src/vite&#45;env.d.ts -->
<g id="node17" class="node">
<title>src/vite&#45;env.d.ts</title>
<path fill="none" stroke="#cfffac" d="M151.33,-484.75C151.33,-484.75 57.42,-484.75 57.42,-484.75 53.46,-484.75 49.5,-480.79 49.5,-476.83 49.5,-476.83 49.5,-468.92 49.5,-468.92 49.5,-464.96 53.46,-461 57.42,-461 57.42,-461 151.33,-461 151.33,-461 155.29,-461 159.25,-464.96 159.25,-468.92 159.25,-468.92 159.25,-476.83 159.25,-476.83 159.25,-480.79 155.29,-484.75 151.33,-484.75"/>
<text xml:space="preserve" text-anchor="middle" x="104.38" y="-467.45" font-family="Arial" font-size="14.00" fill="#cfffac">src/vite&#45;env.d.ts</text>
</g>
<!-- src/workers/backend.ts -->
<g id="node18" class="node">
<title>src/workers/backend.ts</title>
<path fill="none" stroke="#cfffac" d="M173.46,-526.75C173.46,-526.75 35.29,-526.75 35.29,-526.75 31.33,-526.75 27.38,-522.79 27.38,-518.83 27.38,-518.83 27.38,-510.92 27.38,-510.92 27.38,-506.96 31.33,-503 35.29,-503 35.29,-503 173.46,-503 173.46,-503 177.42,-503 181.38,-506.96 181.38,-510.92 181.38,-510.92 181.38,-518.83 181.38,-518.83 181.38,-522.79 177.42,-526.75 173.46,-526.75"/>
<text xml:space="preserve" text-anchor="middle" x="104.38" y="-509.45" font-family="Arial" font-size="14.00" fill="#cfffac">src/workers/backend.ts</text>
</g>
<!-- src/workers/database.ts -->
<g id="node19" class="node">
<title>src/workers/database.ts</title>
<path fill="none" stroke="#c6c5fe" d="M731.08,-411.75C731.08,-411.75 588.42,-411.75 588.42,-411.75 584.46,-411.75 580.5,-407.79 580.5,-403.83 580.5,-403.83 580.5,-395.92 580.5,-395.92 580.5,-391.96 584.46,-388 588.42,-388 588.42,-388 731.08,-388 731.08,-388 735.04,-388 739,-391.96 739,-395.92 739,-395.92 739,-403.83 739,-403.83 739,-407.79 735.04,-411.75 731.08,-411.75"/>
<text xml:space="preserve" text-anchor="middle" x="659.75" y="-394.45" font-family="Arial" font-size="14.00" fill="#c6c5fe">src/workers/database.ts</text>
</g>
<!-- src/workers/database.ts&#45;&gt;src/app_config.ts -->
<g id="edge29" class="edge">
<title>src/workers/database.ts&#45;&gt;src/app_config.ts</title>
<path fill="none" stroke="#757575" d="M716.67,-387.54C732.4,-384.07 749.66,-380.26 765.96,-376.66"/>
<polygon fill="#757575" stroke="#757575" points="766.57,-380.11 775.58,-374.54 765.06,-373.28 766.57,-380.11"/>
</g>
<!-- src/workers/sim_time.ts -->
<g id="node20" class="node">
<title>src/workers/sim_time.ts</title>
<path fill="none" stroke="#cfffac" d="M175.71,-568.75C175.71,-568.75 33.04,-568.75 33.04,-568.75 29.08,-568.75 25.12,-564.79 25.12,-560.83 25.12,-560.83 25.12,-552.92 25.12,-552.92 25.12,-548.96 29.08,-545 33.04,-545 33.04,-545 175.71,-545 175.71,-545 179.67,-545 183.62,-548.96 183.62,-552.92 183.62,-552.92 183.62,-560.83 183.62,-560.83 183.62,-564.79 179.67,-568.75 175.71,-568.75"/>
<text xml:space="preserve" text-anchor="middle" x="104.38" y="-551.45" font-family="Arial" font-size="14.00" fill="#cfffac">src/workers/sim_time.ts</text>
</g>
<!-- vite.config.ts -->
<g id="node21" class="node">
<title>vite.config.ts</title>
<path fill="none" stroke="#cfffac" d="M141.96,-610.75C141.96,-610.75 66.79,-610.75 66.79,-610.75 62.83,-610.75 58.88,-606.79 58.88,-602.83 58.88,-602.83 58.88,-594.92 58.88,-594.92 58.88,-590.96 62.83,-587 66.79,-587 66.79,-587 141.96,-587 141.96,-587 145.92,-587 149.88,-590.96 149.88,-594.92 149.88,-594.92 149.88,-602.83 149.88,-602.83 149.88,-606.79 145.92,-610.75 141.96,-610.75"/>
<text xml:space="preserve" text-anchor="middle" x="104.38" y="-593.45" font-family="Arial" font-size="14.00" fill="#cfffac">vite.config.ts</text>
</g>
</g>
</svg>
